<?xml version="1.0" standalone="no"?>
<!DOCTYPE svg PUBLIC "-//W3C//DTD SVG 20010904//EN"
 "http://www.w3.org/TR/2001/REC-SVG-20010904/DTD/svg10.dtd">
<svg version="1.0" xmlns="http://www.w3.org/2000/svg"
 width="700.000000pt" height="700.000000pt" viewBox="0 0 700.000000 700.000000"
 preserveAspectRatio="xMidYMid meet">
<metadata>
Created by potrace 1.14, written by Peter Selinger 2001-2017
</metadata>
<g transform="translate(0.000000,700.000000) scale(0.100000,-0.100000)"
fill="#000000" stroke="none">
<path d="M1741 5584 c-184 -49 -320 -211 -342 -409 -6 -57 -9 -686 -7 -1740
l3 -1650 23 -67 c45 -134 166 -255 300 -300 l67 -23 1650 -3 c1054 -2 1683 1
1740 7 201 23 360 157 410 346 13 52 15 263 15 1755 0 1390 -3 1704 -14 1745
-45 169 -185 307 -349 345 -26 6 -674 9 -1742 9 -1456 0 -1708 -2 -1754 -15z
m819 -804 l0 -350 -347 2 -348 3 -3 348 -2 347 350 0 350 0 0 -350z m1408 3
l-3 -348 -467 -3 -468 -2 0 350 0 350 470 0 470 0 -2 -347z m1162 -3 l0 -350
-347 2 -348 3 -3 348 -2 347 350 0 350 0 0 -350z m-2570 -1280 l0 -470 -350 0
-350 0 0 463 c0 255 3 467 7 470 3 4 161 7 350 7 l343 0 0 -470z m1408 -2 l2
-468 -470 0 -470 0 0 470 0 470 468 -2 467 -3 3 -467z m1162 2 l0 -470 -350 0
-350 0 0 463 c0 255 3 467 7 470 3 4 161 7 350 7 l343 0 0 -470z m-2570 -1290
l0 -350 -347 2 -348 3 -3 348 -2 347 350 0 350 0 0 -350z m1408 3 l-3 -348
-467 -3 -468 -2 0 350 0 350 470 0 470 0 -2 -347z m1162 -3 l0 -350 -347 2
-348 3 -3 348 -2 347 350 0 350 0 0 -350z"/>
</g>
</svg>
